<svg aria-hidden="true" style="position: absolute; width: 0; height: 0; overflow: hidden;" version="1.1" xmlns="http://www.w3.org/2000/svg" xmlns:xlink="http://www.w3.org/1999/xlink">
<defs>
<symbol id="magnifuingglass" viewBox="0 0 32 32">
<title>magnifuingglass</title>
<path fill="#fff" style="fill: var(--color1, #fff)" d="M23.089 19.977c0.397 0.397 0.644 0.948 0.644 1.556 0 1.215-0.985 2.2-2.2 2.2-0.608 0-1.157-0.247-1.556-0.645v0l-6.448-6.447c-1.309 0.773-2.832 1.225-4.463 1.225-4.86 0-8.8-3.94-8.8-8.8s3.94-8.8 8.8-8.8c4.86 0 8.8 3.94 8.8 8.8 0 1.631-0.452 3.153-1.225 4.463l6.448 6.448zM9.067 2.465c-3.645 0-6.6 2.956-6.6 6.601s2.955 6.6 6.6 6.6c3.645 0 6.6-2.955 6.6-6.6s-2.955-6.601-6.6-6.601z"></path>
</symbol>
<symbol id="shopingcard" viewBox="0 0 38 32">
<title>shopingcard</title>
<path fill="#fff" style="fill: var(--color1, #fff)" d="M28.407 5.882h0.002l-3.966 8.814c-0.195 0.434-0.619 0.744-1.117 0.777v0l-11.423 0.761 0.66 1.885h12.438c1.46 0 2.644 1.184 2.644 2.646 0 1.46-1.184 2.644-2.644 2.644s-2.644-1.184-2.644-2.644h-12.34c0 1.46-1.184 2.644-2.644 2.644s-2.644-1.184-2.644-2.644c0-1.462 1.184-2.646 2.644-2.646h2.389l-5.090-14.542h-3.029c-0.731 0-1.322-0.593-1.322-1.322 0-0.731 0.591-1.322 1.322-1.322h3.966c0.577 0 1.063 0.372 1.244 0.886l0.005-0.002 0.769 2.2h19.577c0.731 0 1.322 0.591 1.322 1.322 0 0.192-0.043 0.375-0.119 0.542zM8.553 6.663l2.444 6.982 11.361-0.758 2.801-6.224h-16.606z"></path>
</symbol>
</defs>
</svg>
