<svg aria-hidden="true" style="position:absolute;width:0;height:0" xmlns="http://www.w3.org/2000/svg" overflow="hidden"><defs><symbol id="magnifuingglass" viewBox="0 0 32 32"><path d="M23.089 19.977a2.2 2.2 0 1 1-3.112 3.111l-6.448-6.447a8.748 8.748 0 0 1-4.463 1.225 8.8 8.8 0 1 1 8.8-8.8 8.751 8.751 0 0 1-1.225 4.463l6.448 6.448zM9.067 2.465a6.601 6.601 0 1 0 .002 13.202 6.601 6.601 0 0 0-.002-13.202z"/></symbol><symbol id="shopingcard" viewBox="0 0 38 32"><path d="M28.407 5.882h.002l-3.966 8.814a1.323 1.323 0 0 1-1.117.777l-11.423.761.66 1.885h12.438a2.645 2.645 0 1 1-2.644 2.646h-12.34a2.644 2.644 0 1 1-2.644-2.646h2.389L4.672 3.577H1.643a1.322 1.322 0 0 1 0-2.644h3.966a1.32 1.32 0 0 1 1.244.886l.005-.002.769 2.2h19.577a1.32 1.32 0 0 1 1.203 1.864zm-19.854.781l2.444 6.982 11.361-.758 2.801-6.224H8.553z"/></symbol></defs></svg>