<svg aria-hidden="true" style="position: absolute; width: 0; height: 0; overflow: hidden;" version="1.1" xmlns="http://www.w3.org/2000/svg" xmlns:xlink="http://www.w3.org/1999/xlink">
<defs>
<symbol id="alarm" viewBox="0 0 33 32">
<title>alarm</title>
<path fill="#95e1d3" style="fill: var(--color1, #95e1d3)" d="M23.782 7.347c-1.225-2.859-3.518-5.153-6.377-6.377 0.774-0.609 1.747-0.975 2.808-0.975 2.51 0 4.544 2.035 4.544 4.544 0 1.061-0.366 2.034-0.975 2.808zM23.597 12.373c0 2.98-1.17 5.681-3.066 7.69l1.57 1.569c0.207 0.208 0.336 0.494 0.336 0.812 0 0.634-0.514 1.147-1.147 1.147-0.317 0-0.604-0.128-0.812-0.337l-1.685-1.685c-1.819 1.27-4.027 2.022-6.414 2.022-2.382 0-4.586-0.747-6.403-2.014l-1.673 1.673c-0.21 0.21-0.501 0.34-0.821 0.34-0.641 0-1.16-0.52-1.16-1.161 0-0.32 0.13-0.61 0.34-0.82l1.557-1.557c-1.89-2.008-3.057-4.705-3.057-7.68 0-6.195 5.023-11.218 11.218-11.218s11.218 5.023 11.218 11.218zM12.379 3.476c-4.914 0-8.897 3.983-8.897 8.897s3.984 8.897 8.897 8.897 8.897-3.984 8.897-8.897c0-4.914-3.984-8.897-8.897-8.897zM17.021 13.534h-4.642c-0.641 0-1.161-0.52-1.161-1.161v-6.189c0-0.641 0.52-1.16 1.161-1.16s1.161 0.52 1.161 1.16v5.028h3.481c0.641 0 1.16 0.52 1.16 1.161s-0.52 1.161-1.16 1.161zM0.996 7.503c-0.622-0.789-0.996-1.783-0.996-2.866 0-2.564 2.078-4.642 4.642-4.642 1.083 0 2.077 0.374 2.867 0.996-2.921 1.251-5.262 3.593-6.513 6.513z"></path>
</symbol>
<symbol id="book2" viewBox="0 0 32 32">
<title>book2</title>
<path fill="#95e1d3" style="fill: var(--color1, #95e1d3)" d="M23.33 19.443l-10.868 4.497c-0.137 0.059-0.288 0.092-0.446 0.092s-0.309-0.033-0.446-0.092l-10.868-4.497c-0.412-0.167-0.702-0.572-0.702-1.043v-17.273c0-0.623 0.505-1.127 1.127-1.127 0.152 0 0.298 0.031 0.43 0.086h0.001l0.002 0.001c0.003 0.001 0.007 0.003 0.010 0.004l10.447 4.323 10.447-4.323c0.003-0.001 0.007-0.003 0.010-0.004l0.002-0.001c0.132-0.055 0.278-0.086 0.43-0.086 0.622 0 1.127 0.504 1.127 1.127v17.273c0 0.472-0.291 0.876-0.702 1.043zM10.89 6.386l-8.637-3.574v14.835l8.637 3.574v-14.835zM21.779 2.812l-8.637 3.574v14.835l8.637-3.574v-14.835zM14.929 7.986l4.131-1.878c0.142-0.065 0.3-0.101 0.466-0.101 0.622 0 1.127 0.504 1.127 1.127 0 0.456-0.271 0.848-0.66 1.025v0l-4.131 1.878c-0.143 0.065-0.3 0.101-0.466 0.101-0.622 0-1.127-0.505-1.127-1.127 0-0.456 0.271-0.849 0.66-1.026zM14.929 12.117v0l4.131-1.878c0.142-0.065 0.3-0.101 0.466-0.101 0.622 0 1.127 0.504 1.127 1.126 0 0.457-0.271 0.849-0.66 1.026l-4.131 1.878c-0.143 0.065-0.3 0.101-0.466 0.101-0.622 0-1.127-0.505-1.127-1.127 0-0.456 0.271-0.849 0.66-1.026zM14.929 16.247v0l4.131-1.878c0.142-0.065 0.3-0.101 0.466-0.101 0.622 0 1.127 0.504 1.127 1.127 0 0.456-0.271 0.848-0.66 1.025v0l-4.131 1.878c-0.143 0.065-0.3 0.101-0.466 0.101-0.622 0-1.127-0.505-1.127-1.127 0-0.456 0.271-0.849 0.66-1.026zM4.506 6.008c0.166 0 0.324 0.036 0.466 0.101v0l4.131 1.878c0.389 0.177 0.66 0.57 0.66 1.026 0 0.622-0.505 1.127-1.127 1.127-0.167 0-0.324-0.036-0.466-0.101v0l-4.131-1.878c-0.389-0.177-0.66-0.569-0.66-1.025 0-0.623 0.505-1.127 1.127-1.127zM4.506 10.139c0.166 0 0.324 0.036 0.466 0.101v0l4.131 1.878c0.389 0.177 0.66 0.57 0.66 1.026 0 0.622-0.505 1.127-1.127 1.127-0.167 0-0.324-0.037-0.466-0.101v0l-4.131-1.878c-0.389-0.177-0.66-0.569-0.66-1.026 0-0.622 0.505-1.126 1.127-1.126zM4.506 14.269c0.166 0 0.324 0.036 0.466 0.101v0l4.131 1.878c0.389 0.177 0.66 0.57 0.66 1.026 0 0.622-0.505 1.127-1.127 1.127-0.167 0-0.324-0.036-0.466-0.101v0l-4.131-1.878c-0.389-0.177-0.66-0.569-0.66-1.025 0-0.623 0.505-1.127 1.127-1.127z"></path>
</symbol>
<symbol id="computer" viewBox="0 0 37 32">
<title>computer</title>
<path fill="#95e1d3" style="fill: var(--color1, #95e1d3)" d="M25.716 19.71h-8.143v2.142l1.714 1.715v0.429h-11.143v-0.429l1.714-1.715v-2.142h-8.143c-0.71 0-1.286-0.576-1.286-1.287v-17.143c0-0.711 0.576-1.286 1.286-1.286h24.001c0.71 0 1.286 0.575 1.286 1.286v17.143c0 0.711-0.576 1.287-1.286 1.287zM25.287 1.709h-23.144v14.572h23.144v-14.572zM11.143 7.709c0.355 0 0.676 0.144 0.909 0.376v0l0.805 0.805 2.519-2.519c0.233-0.233 0.555-0.376 0.909-0.376 0.71 0 1.286 0.575 1.286 1.286 0 0.355-0.144 0.676-0.376 0.909v0l-3.429 3.429c-0.233 0.232-0.555 0.376-0.909 0.376s-0.676-0.144-0.909-0.376v0l-1.714-1.715c-0.232-0.232-0.376-0.554-0.376-0.909 0-0.711 0.576-1.286 1.286-1.286z"></path>
</symbol>
<symbol id="home" viewBox="0 0 33 32">
<title>home</title>
<path fill="#95e1d3" style="fill: var(--color1, #95e1d3)" d="M24.757 12.76c0 0.641-0.52 1.16-1.16 1.16-0.306 0-0.582-0.12-0.789-0.313l-0.002 0.003-10.427-10.426-10.403 10.403c-0.21 0.207-0.497 0.333-0.815 0.333-0.641 0-1.161-0.519-1.161-1.16 0-0.329 0.137-0.625 0.357-0.836l11.186-11.186c0.211-0.219 0.508-0.356 0.836-0.356v0 0c0 0 0 0 0.001 0 0.020 0 0.040 0 0.061 0.002 0.003 0 0.006 0.001 0.009 0.001 0.018 0.001 0.035 0.002 0.053 0.004 0.001 0 0.002 0 0.003 0.001 0.284 0.031 0.537 0.164 0.722 0.362l0.001-0.001 4.566 4.566v-1.066c0-0.641 0.519-1.16 1.16-1.16s1.16 0.519 1.16 1.16v3.387l4.331 4.331-0.003 0.003c0.193 0.207 0.314 0.484 0.314 0.789zM22.436 14.694v8.123c0 0.641-0.52 1.16-1.16 1.16h-2.321v-9.284h-4.642v9.284h-10.831c-0.641 0-1.16-0.52-1.16-1.16v-8.123l10.058-10.058 10.058 10.058zM10.444 14.694h-4.642v4.642h4.642v-4.642z"></path>
</symbol>
<symbol id="image" viewBox="0 0 32 32">
<title>image</title>
<path fill="#95e1d3" style="fill: var(--color1, #95e1d3)" d="M22.906 24.032h-21.779c-0.623 0-1.127-0.505-1.127-1.127v-21.779c0-0.623 0.504-1.127 1.127-1.127h21.779c0.622 0 1.127 0.504 1.127 1.127v21.779c0 0.622-0.505 1.127-1.127 1.127zM21.779 2.253h-19.526v19.526h19.526v-19.526zM4.882 3.38h4.131c0.622 0 1.127 0.504 1.127 1.126s-0.505 1.127-1.127 1.127v0h-3.38v3.38c0 0.622-0.505 1.127-1.127 1.127s-1.127-0.505-1.127-1.127v0-5.633h1.502zM3.38 15.020v0c0-0.623 0.505-1.127 1.126-1.127s1.127 0.505 1.127 1.127v0 3.379l3.38 0.001c0.622 0 1.127 0.504 1.127 1.127s-0.505 1.127-1.127 1.127v0h-5.633v-5.633zM15.020 3.38v0h5.633v5.633c0 0.622-0.505 1.127-1.127 1.127s-1.127-0.505-1.127-1.127v0-3.38h-3.38c-0.622 0-1.127-0.505-1.127-1.127s0.505-1.127 1.127-1.127zM15.020 18.4v-0.001h3.38v-3.379c0-0.623 0.505-1.127 1.127-1.127s1.127 0.505 1.127 1.127v0 5.633h-5.633c-0.622 0-1.127-0.505-1.127-1.127s0.505-1.127 1.127-1.127z"></path>
</symbol>
<symbol id="line-graph" viewBox="0 0 32 32">
<title>line-graph</title>
<path fill="#95e1d3" style="fill: var(--color1, #95e1d3)" d="M22.906 24.032h-21.779c-0.622 0-1.127-0.505-1.127-1.127v-21.78c0-0.621 0.505-1.126 1.127-1.126h21.779c0.622 0 1.127 0.505 1.127 1.126v21.78c0 0.622-0.505 1.127-1.127 1.127zM21.779 2.253h-19.526v19.526h19.526v-19.526zM3.917 12.196v-0.002l3.004-1.876c0.172-0.106 0.373-0.167 0.59-0.167 0.234 0 0.451 0.071 0.631 0.193l0.005-0.006 4.98 3.319 5.736-4.049c0.186-0.137 0.416-0.218 0.665-0.218 0.622 0 1.127 0.505 1.127 1.127 0 0.376-0.184 0.708-0.467 0.913h0.001l-6.384 4.506c-0.185 0.134-0.413 0.213-0.659 0.213-0.241 0-0.464-0.076-0.647-0.204l-4.999-3.333-2.354 1.472c-0.181 0.124-0.4 0.197-0.636 0.197-0.622 0-1.127-0.505-1.127-1.127 0-0.406 0.215-0.762 0.537-0.96z"></path>
</symbol>
</defs>
</svg>
