<svg aria-hidden="true" style="position:absolute;width:0;height:0" xmlns="http://www.w3.org/2000/svg" overflow="hidden"><defs><symbol id="alarm" viewBox="0 0 33 32"><path fill="var(--color1, #95e1d3)" d="M23.782 7.347A12.162 12.162 0 0 0 17.405.97a4.524 4.524 0 0 1 2.808-.975 4.544 4.544 0 0 1 4.544 4.544 4.524 4.524 0 0 1-.975 2.808zm-.185 5.026c0 2.98-1.17 5.681-3.066 7.69l1.57 1.569a1.147 1.147 0 1 1-1.623 1.622l-1.685-1.685a11.165 11.165 0 0 1-6.414 2.022c-2.382 0-4.586-.747-6.403-2.014L4.303 23.25a1.159 1.159 0 0 1-1.981-.821c0-.32.13-.61.34-.82l1.557-1.557a11.169 11.169 0 0 1-3.057-7.68c0-6.195 5.023-11.218 11.218-11.218s11.218 5.023 11.218 11.218zM12.379 3.476a8.897 8.897 0 1 0 0 17.794 8.897 8.897 0 0 0 0-17.794zm4.642 10.058h-4.642c-.641 0-1.161-.52-1.161-1.161V6.184a1.16 1.16 0 0 1 2.322 0v5.028h3.481a1.16 1.16 0 0 1 0 2.322zM.996 7.503A4.613 4.613 0 0 1 0 4.637 4.642 4.642 0 0 1 4.642-.005c1.083 0 2.077.374 2.867.996A12.42 12.42 0 0 0 .996 7.504z"/></symbol><symbol id="book2" viewBox="0 0 32 32"><path fill="var(--color1, #95e1d3)" d="M23.33 19.443L12.462 23.94a1.126 1.126 0 0 1-.892 0L.702 19.443A1.126 1.126 0 0 1 0 18.4V1.127A1.127 1.127 0 0 1 1.557.086h.001l.002.001.01.004 10.447 4.323L22.464.091l.01-.004.002-.001a1.127 1.127 0 0 1 1.557 1.041V18.4c0 .472-.291.876-.702 1.043zM10.89 6.386L2.253 2.812v14.835l8.637 3.574V6.386zm10.889-3.574l-8.637 3.574v14.835l8.637-3.574V2.812zm-6.85 5.174l4.131-1.878a1.127 1.127 0 0 1 .933 2.051l-4.131 1.878a1.128 1.128 0 0 1-.933-2.052zm0 4.131l4.131-1.878a1.127 1.127 0 0 1 .933 2.051l-4.131 1.878a1.128 1.128 0 0 1-.933-2.052zm0 4.13l4.131-1.878a1.127 1.127 0 0 1 .933 2.051l-4.131 1.878a1.128 1.128 0 0 1-.933-2.052zM4.506 6.008c.166 0 .324.036.466.101l4.131 1.878a1.127 1.127 0 0 1-.933 2.052L4.039 8.161a1.126 1.126 0 0 1 .467-2.152zm0 4.131c.166 0 .324.036.466.101l4.131 1.878a1.127 1.127 0 0 1-.933 2.052l-4.131-1.878a1.126 1.126 0 0 1 .467-2.152zm0 4.13c.166 0 .324.036.466.101l4.131 1.878A1.127 1.127 0 0 1 8.17 18.3l-4.131-1.878a1.126 1.126 0 0 1 .467-2.152z"/></symbol><symbol id="computer" viewBox="0 0 37 32"><path fill="var(--color1, #95e1d3)" d="M25.716 19.71h-8.143v2.142l1.714 1.715v.429H8.144v-.429l1.714-1.715V19.71H1.715c-.71 0-1.286-.576-1.286-1.287V1.28c0-.711.576-1.286 1.286-1.286h24.001c.71 0 1.286.575 1.286 1.286v17.143c0 .711-.576 1.287-1.286 1.287zm-.429-18.001H2.143v14.572h23.144V1.709zm-14.144 6c.355 0 .676.144.909.376l.805.805 2.519-2.519a1.286 1.286 0 0 1 1.819 1.819l-3.429 3.429a1.286 1.286 0 0 1-1.818 0l-1.714-1.715a1.286 1.286 0 0 1 .91-2.195z"/></symbol><symbol id="home" viewBox="0 0 33 32"><path fill="var(--color1, #95e1d3)" d="M24.757 12.76c0 .641-.52 1.16-1.16 1.16-.306 0-.582-.12-.789-.313l-.002.003L12.379 3.184 1.976 13.587a1.16 1.16 0 1 1-1.619-1.663L11.543.738c.211-.219.508-.356.836-.356h.001c.02 0 .04 0 .061.002l.009.001a.945.945 0 0 1 .056.005c.284.031.537.164.722.362l.001-.001 4.566 4.566V4.251a1.16 1.16 0 1 1 2.32 0v3.387l4.331 4.331-.003.003c.193.207.314.484.314.789zm-2.321 1.934v8.123c0 .641-.52 1.16-1.16 1.16h-2.321v-9.284h-4.642v9.284H3.482a1.16 1.16 0 0 1-1.16-1.16v-8.123L12.38 4.636l10.058 10.058zm-11.992 0H5.802v4.642h4.642v-4.642z"/></symbol><symbol id="image" viewBox="0 0 32 32"><path fill="var(--color1, #95e1d3)" d="M22.906 24.032H1.127A1.127 1.127 0 0 1 0 22.905V1.126C0 .503.504-.001 1.127-.001h21.779c.622 0 1.127.504 1.127 1.127v21.779c0 .622-.505 1.127-1.127 1.127zM21.779 2.253H2.253v19.526h19.526V2.253zM4.882 3.38h4.131a1.127 1.127 0 1 1 0 2.253h-3.38v3.38a1.128 1.128 0 0 1-2.254 0V3.38h1.502zM3.38 15.02a1.127 1.127 0 1 1 2.253 0v3.379l3.38.001a1.127 1.127 0 1 1 0 2.254H3.38v-5.633zM15.02 3.38h5.633v5.633a1.128 1.128 0 0 1-2.254 0v-3.38h-3.38a1.128 1.128 0 0 1 0-2.254zm0 15.02v-.001h3.38V15.02a1.127 1.127 0 1 1 2.254 0v5.633h-5.633a1.128 1.128 0 0 1 0-2.254z"/></symbol><symbol id="line-graph" viewBox="0 0 32 32"><path fill="var(--color1, #95e1d3)" d="M22.906 24.032H1.127A1.128 1.128 0 0 1 0 22.905V1.125C0 .504.505-.001 1.127-.001h21.779c.622 0 1.127.505 1.127 1.126v21.78c0 .622-.505 1.127-1.127 1.127zM21.779 2.253H2.253v19.526h19.526V2.253zM3.917 12.196v-.002l3.004-1.876a1.12 1.12 0 0 1 1.221.026l.005-.006 4.98 3.319 5.736-4.049a1.128 1.128 0 0 1 1.325 1.822h.001l-6.384 4.506a1.12 1.12 0 0 1-1.306.009L7.5 12.612l-2.354 1.472a1.128 1.128 0 0 1-1.226-1.89z"/></symbol></defs></svg>